<svg width="53" height="52" viewBox="0 0 53 52" fill="none" xmlns="http://www.w3.org/2000/svg">
<path d="M22.1109 49.8891C24.2588 52.037 27.7412 52.037 29.8891 49.8891C32.037 47.7412 32.037 44.2588 29.8891 42.1109L22.1109 49.8891ZM6 26L2.11091 22.1109C-0.0369709 24.2588 -0.0369709 27.7412 2.11091 29.8891L6 26ZM29.8891 9.88909C32.037 7.7412 32.037 4.2588 29.8891 2.11091C27.7412 -0.0369709 24.2588 -0.0369709 22.1109 2.11091L29.8891 9.88909ZM7.5 21C4.46243 21 2 23.4624 2 26.5C2 29.5376 4.46243 32 7.5 32V21ZM47.5 32C50.5376 32 53 29.5376 53 26.5C53 23.4624 50.5376 21 47.5 21V32ZM29.8891 42.1109L9.88909 22.1109L2.11091 29.8891L22.1109 49.8891L29.8891 42.1109ZM9.88909 29.8891L29.8891 9.88909L22.1109 2.11091L2.11091 22.1109L9.88909 29.8891ZM7.5 32H47.5V21H7.5V32Z" fill="#1D1E2C"/>
</svg>
